<svg width="32" height="32" viewBox="0 0 32 32" fill="none" xmlns="http://www.w3.org/2000/svg">
<path d="M27 15H6.59005L12 9.63999C12.0938 9.54703 12.1682 9.43643 12.2189 9.31457C12.2697 9.19271 12.2958 9.062 12.2958 8.92999C12.2958 8.79798 12.2697 8.66727 12.2189 8.54542C12.1682 8.42356 12.0938 8.31296 12 8.21999C11.8127 8.03374 11.5592 7.9292 11.295 7.9292C11.0309 7.9292 10.7774 8.03374 10.59 8.21999L4.88005 13.88C4.31824 14.4425 4.00269 15.205 4.00269 16C4.00269 16.795 4.31824 17.5575 4.88005 18.12L10.54 23.78C10.7263 23.9647 10.9777 24.0689 11.24 24.07C11.3717 24.0708 11.5021 24.0455 11.624 23.9958C11.7458 23.946 11.8566 23.8727 11.95 23.78C12.0438 23.687 12.1182 23.5764 12.1689 23.4546C12.2197 23.3327 12.2458 23.202 12.2458 23.07C12.2458 22.938 12.2197 22.8073 12.1689 22.6854C12.1182 22.5636 12.0438 22.453 11.95 22.36L6.59005 17H27C27.2653 17 27.5196 16.8946 27.7072 16.7071C27.8947 16.5196 28 16.2652 28 16C28 15.7348 27.8947 15.4804 27.7072 15.2929C27.5196 15.1053 27.2653 15 27 15Z" fill="black"/>
</svg>
