<svg width="219" height="120" viewBox="0 0 219 120" fill="none" xmlns="http://www.w3.org/2000/svg">
<path d="M20.3636 55H4.59091V8.45454H20.6818C25.303 8.45454 29.2727 9.38636 32.5909 11.25C35.9242 13.0985 38.4849 15.7576 40.2727 19.2273C42.0606 22.697 42.9545 26.8485 42.9545 31.6818C42.9545 36.5303 42.053 40.697 40.25 44.1818C38.4621 47.6667 35.8788 50.3409 32.5 52.2045C29.1364 54.0682 25.0909 55 20.3636 55ZM13.0227 47.7045H19.9545C23.197 47.7045 25.9015 47.1136 28.0682 45.9318C30.2348 44.7348 31.8636 42.9545 32.9545 40.5909C34.0455 38.2121 34.5909 35.2424 34.5909 31.6818C34.5909 28.1212 34.0455 25.1667 32.9545 22.8182C31.8636 20.4545 30.25 18.6894 28.1136 17.5227C25.9924 16.3409 23.3561 15.75 20.2045 15.75H13.0227V47.7045ZM64.3295 55.6818C60.9205 55.6818 57.9659 54.9318 55.4659 53.4318C52.9659 51.9318 51.0265 49.8333 49.6477 47.1364C48.2841 44.4394 47.6023 41.2879 47.6023 37.6818C47.6023 34.0758 48.2841 30.9167 49.6477 28.2045C51.0265 25.4924 52.9659 23.3864 55.4659 21.8864C57.9659 20.3864 60.9205 19.6364 64.3295 19.6364C67.7386 19.6364 70.6932 20.3864 73.1932 21.8864C75.6932 23.3864 77.625 25.4924 78.9886 28.2045C80.3674 30.9167 81.0568 34.0758 81.0568 37.6818C81.0568 41.2879 80.3674 44.4394 78.9886 47.1364C77.625 49.8333 75.6932 51.9318 73.1932 53.4318C70.6932 54.9318 67.7386 55.6818 64.3295 55.6818ZM64.375 49.0909C66.2235 49.0909 67.7689 48.5833 69.0114 47.5682C70.2538 46.5379 71.178 45.1591 71.7841 43.4318C72.4053 41.7045 72.7159 39.7803 72.7159 37.6591C72.7159 35.5227 72.4053 33.5909 71.7841 31.8636C71.178 30.1212 70.2538 28.7348 69.0114 27.7045C67.7689 26.6742 66.2235 26.1591 64.375 26.1591C62.4811 26.1591 60.9053 26.6742 59.6477 27.7045C58.4053 28.7348 57.4735 30.1212 56.8523 31.8636C56.2462 33.5909 55.9432 35.5227 55.9432 37.6591C55.9432 39.7803 56.2462 41.7045 56.8523 43.4318C57.4735 45.1591 58.4053 46.5379 59.6477 47.5682C60.9053 48.5833 62.4811 49.0909 64.375 49.0909ZM96.5852 55.7045C94.3731 55.7045 92.3807 55.3106 90.608 54.5227C88.8504 53.7197 87.4564 52.5379 86.4261 50.9773C85.411 49.4167 84.9034 47.4924 84.9034 45.2045C84.9034 43.2348 85.267 41.6061 85.9943 40.3182C86.7216 39.0303 87.714 38 88.9716 37.2273C90.2292 36.4545 91.6458 35.8712 93.2216 35.4773C94.8125 35.0682 96.4564 34.7727 98.1534 34.5909C100.199 34.3788 101.858 34.1894 103.131 34.0227C104.403 33.8409 105.328 33.5682 105.903 33.2045C106.494 32.8258 106.79 32.2424 106.79 31.4545V31.3182C106.79 29.6061 106.282 28.2803 105.267 27.3409C104.252 26.4015 102.79 25.9318 100.881 25.9318C98.8655 25.9318 97.267 26.3712 96.0852 27.25C94.9186 28.1288 94.1307 29.1667 93.7216 30.3636L86.0398 29.2727C86.6458 27.1515 87.6458 25.3788 89.0398 23.9545C90.4337 22.5151 92.1383 21.4394 94.1534 20.7273C96.1686 20 98.3958 19.6364 100.835 19.6364C102.517 19.6364 104.191 19.8333 105.858 20.2273C107.525 20.6212 109.047 21.2727 110.426 22.1818C111.805 23.0758 112.911 24.2955 113.744 25.8409C114.593 27.3864 115.017 29.3182 115.017 31.6364V55H107.108V50.2045H106.835C106.335 51.1742 105.631 52.0833 104.722 52.9318C103.828 53.7652 102.699 54.4394 101.335 54.9545C99.9867 55.4545 98.4034 55.7045 96.5852 55.7045ZM98.7216 49.6591C100.373 49.6591 101.805 49.3333 103.017 48.6818C104.229 48.0152 105.161 47.1364 105.812 46.0455C106.479 44.9545 106.812 43.7652 106.812 42.4773V38.3636C106.555 38.5758 106.116 38.7727 105.494 38.9545C104.888 39.1364 104.206 39.2955 103.449 39.4318C102.691 39.5682 101.941 39.6894 101.199 39.7955C100.456 39.9015 99.8125 39.9924 99.267 40.0682C98.0398 40.2348 96.9413 40.5076 95.9716 40.8864C95.0019 41.2652 94.2367 41.7955 93.6761 42.4773C93.1155 43.1439 92.8352 44.0076 92.8352 45.0682C92.8352 46.5833 93.3883 47.7273 94.4943 48.5C95.6004 49.2727 97.0095 49.6591 98.7216 49.6591ZM4.59091 119V72.4545H22.0455C25.6212 72.4545 28.6212 73.1212 31.0455 74.4545C33.4849 75.7879 35.3258 77.6212 36.5682 79.9545C37.8258 82.2727 38.4545 84.9091 38.4545 87.8636C38.4545 90.8485 37.8258 93.5 36.5682 95.8182C35.3106 98.1364 33.4545 99.9621 31 101.295C28.5455 102.614 25.5227 103.273 21.9318 103.273H10.3636V96.3409H20.7955C22.8864 96.3409 24.5985 95.9773 25.9318 95.25C27.2652 94.5227 28.25 93.5227 28.8864 92.25C29.5379 90.9773 29.8636 89.5152 29.8636 87.8636C29.8636 86.2121 29.5379 84.7576 28.8864 83.5C28.25 82.2424 27.2576 81.2652 25.9091 80.5682C24.5758 79.8561 22.8561 79.5 20.75 79.5H13.0227V119H4.59091ZM58.8693 119.682C55.3693 119.682 52.3466 118.955 49.8011 117.5C47.2708 116.03 45.3239 113.955 43.9602 111.273C42.5966 108.576 41.9148 105.402 41.9148 101.75C41.9148 98.1591 42.5966 95.0076 43.9602 92.2955C45.339 89.5682 47.2633 87.447 49.733 85.9318C52.2027 84.4015 55.1042 83.6364 58.4375 83.6364C60.589 83.6364 62.6193 83.9848 64.5284 84.6818C66.4527 85.3636 68.1496 86.4242 69.6193 87.8636C71.1042 89.303 72.2708 91.1364 73.1193 93.3636C73.9678 95.5758 74.392 98.2121 74.392 101.273V103.795H45.7784V98.25H66.5057C66.4905 96.6742 66.1496 95.2727 65.483 94.0455C64.8163 92.803 63.8845 91.8258 62.6875 91.1136C61.5057 90.4015 60.1269 90.0455 58.5511 90.0455C56.8693 90.0455 55.392 90.4545 54.1193 91.2727C52.8466 92.0758 51.8542 93.1364 51.142 94.4545C50.4451 95.7576 50.089 97.1894 50.0739 98.75V103.591C50.0739 105.621 50.4451 107.364 51.1875 108.818C51.9299 110.258 52.9678 111.364 54.3011 112.136C55.6345 112.894 57.1951 113.273 58.983 113.273C60.1799 113.273 61.2633 113.106 62.233 112.773C63.2027 112.424 64.0436 111.917 64.7557 111.25C65.4678 110.583 66.0057 109.758 66.3693 108.773L74.0511 109.636C73.5663 111.667 72.642 113.439 71.2784 114.955C69.9299 116.455 68.2027 117.621 66.0966 118.455C63.9905 119.273 61.5814 119.682 58.8693 119.682ZM97.2841 84.0909V90.4545H77.2159V84.0909H97.2841ZM82.1705 75.7273H90.3977V108.5C90.3977 109.606 90.5644 110.455 90.8977 111.045C91.2462 111.621 91.7008 112.015 92.2614 112.227C92.822 112.439 93.4432 112.545 94.125 112.545C94.6402 112.545 95.1098 112.508 95.5341 112.432C95.9735 112.356 96.3068 112.288 96.5341 112.227L97.9205 118.659C97.4811 118.811 96.8523 118.977 96.0341 119.159C95.2311 119.341 94.2462 119.447 93.0795 119.477C91.0189 119.538 89.1629 119.227 87.5114 118.545C85.8598 117.848 84.5492 116.773 83.5795 115.318C82.625 113.864 82.1553 112.045 82.1705 109.864V75.7273Z" fill="#263238"/>
<path d="M20.3636 55H4.59091V8.45454H20.6818C25.303 8.45454 29.2727 9.38636 32.5909 11.25C35.9242 13.0985 38.4849 15.7576 40.2727 19.2273C42.0606 22.697 42.9545 26.8485 42.9545 31.6818C42.9545 36.5303 42.053 40.697 40.25 44.1818C38.4621 47.6667 35.8788 50.3409 32.5 52.2045C29.1364 54.0682 25.0909 55 20.3636 55ZM13.0227 47.7045H19.9545C23.197 47.7045 25.9015 47.1136 28.0682 45.9318C30.2348 44.7348 31.8636 42.9545 32.9545 40.5909C34.0455 38.2121 34.5909 35.2424 34.5909 31.6818C34.5909 28.1212 34.0455 25.1667 32.9545 22.8182C31.8636 20.4545 30.25 18.6894 28.1136 17.5227C25.9924 16.3409 23.3561 15.75 20.2045 15.75H13.0227V47.7045ZM64.3295 55.6818C60.9205 55.6818 57.9659 54.9318 55.4659 53.4318C52.9659 51.9318 51.0265 49.8333 49.6477 47.1364C48.2841 44.4394 47.6023 41.2879 47.6023 37.6818C47.6023 34.0758 48.2841 30.9167 49.6477 28.2045C51.0265 25.4924 52.9659 23.3864 55.4659 21.8864C57.9659 20.3864 60.9205 19.6364 64.3295 19.6364C67.7386 19.6364 70.6932 20.3864 73.1932 21.8864C75.6932 23.3864 77.625 25.4924 78.9886 28.2045C80.3674 30.9167 81.0568 34.0758 81.0568 37.6818C81.0568 41.2879 80.3674 44.4394 78.9886 47.1364C77.625 49.8333 75.6932 51.9318 73.1932 53.4318C70.6932 54.9318 67.7386 55.6818 64.3295 55.6818ZM64.375 49.0909C66.2235 49.0909 67.7689 48.5833 69.0114 47.5682C70.2538 46.5379 71.178 45.1591 71.7841 43.4318C72.4053 41.7045 72.7159 39.7803 72.7159 37.6591C72.7159 35.5227 72.4053 33.5909 71.7841 31.8636C71.178 30.1212 70.2538 28.7348 69.0114 27.7045C67.7689 26.6742 66.2235 26.1591 64.375 26.1591C62.4811 26.1591 60.9053 26.6742 59.6477 27.7045C58.4053 28.7348 57.4735 30.1212 56.8523 31.8636C56.2462 33.5909 55.9432 35.5227 55.9432 37.6591C55.9432 39.7803 56.2462 41.7045 56.8523 43.4318C57.4735 45.1591 58.4053 46.5379 59.6477 47.5682C60.9053 48.5833 62.4811 49.0909 64.375 49.0909ZM96.5852 55.7045C94.3731 55.7045 92.3807 55.3106 90.608 54.5227C88.8504 53.7197 87.4564 52.5379 86.4261 50.9773C85.411 49.4167 84.9034 47.4924 84.9034 45.2045C84.9034 43.2348 85.267 41.6061 85.9943 40.3182C86.7216 39.0303 87.714 38 88.9716 37.2273C90.2292 36.4545 91.6458 35.8712 93.2216 35.4773C94.8125 35.0682 96.4564 34.7727 98.1534 34.5909C100.199 34.3788 101.858 34.1894 103.131 34.0227C104.403 33.8409 105.328 33.5682 105.903 33.2045C106.494 32.8258 106.79 32.2424 106.79 31.4545V31.3182C106.79 29.6061 106.282 28.2803 105.267 27.3409C104.252 26.4015 102.79 25.9318 100.881 25.9318C98.8655 25.9318 97.267 26.3712 96.0852 27.25C94.9186 28.1288 94.1307 29.1667 93.7216 30.3636L86.0398 29.2727C86.6458 27.1515 87.6458 25.3788 89.0398 23.9545C90.4337 22.5151 92.1383 21.4394 94.1534 20.7273C96.1686 20 98.3958 19.6364 100.835 19.6364C102.517 19.6364 104.191 19.8333 105.858 20.2273C107.525 20.6212 109.047 21.2727 110.426 22.1818C111.805 23.0758 112.911 24.2955 113.744 25.8409C114.593 27.3864 115.017 29.3182 115.017 31.6364V55H107.108V50.2045H106.835C106.335 51.1742 105.631 52.0833 104.722 52.9318C103.828 53.7652 102.699 54.4394 101.335 54.9545C99.9867 55.4545 98.4034 55.7045 96.5852 55.7045ZM98.7216 49.6591C100.373 49.6591 101.805 49.3333 103.017 48.6818C104.229 48.0152 105.161 47.1364 105.812 46.0455C106.479 44.9545 106.812 43.7652 106.812 42.4773V38.3636C106.555 38.5758 106.116 38.7727 105.494 38.9545C104.888 39.1364 104.206 39.2955 103.449 39.4318C102.691 39.5682 101.941 39.6894 101.199 39.7955C100.456 39.9015 99.8125 39.9924 99.267 40.0682C98.0398 40.2348 96.9413 40.5076 95.9716 40.8864C95.0019 41.2652 94.2367 41.7955 93.6761 42.4773C93.1155 43.1439 92.8352 44.0076 92.8352 45.0682C92.8352 46.5833 93.3883 47.7273 94.4943 48.5C95.6004 49.2727 97.0095 49.6591 98.7216 49.6591ZM4.59091 119V72.4545H22.0455C25.6212 72.4545 28.6212 73.1212 31.0455 74.4545C33.4849 75.7879 35.3258 77.6212 36.5682 79.9545C37.8258 82.2727 38.4545 84.9091 38.4545 87.8636C38.4545 90.8485 37.8258 93.5 36.5682 95.8182C35.3106 98.1364 33.4545 99.9621 31 101.295C28.5455 102.614 25.5227 103.273 21.9318 103.273H10.3636V96.3409H20.7955C22.8864 96.3409 24.5985 95.9773 25.9318 95.25C27.2652 94.5227 28.25 93.5227 28.8864 92.25C29.5379 90.9773 29.8636 89.5152 29.8636 87.8636C29.8636 86.2121 29.5379 84.7576 28.8864 83.5C28.25 82.2424 27.2576 81.2652 25.9091 80.5682C24.5758 79.8561 22.8561 79.5 20.75 79.5H13.0227V119H4.59091ZM58.8693 119.682C55.3693 119.682 52.3466 118.955 49.8011 117.5C47.2708 116.03 45.3239 113.955 43.9602 111.273C42.5966 108.576 41.9148 105.402 41.9148 101.75C41.9148 98.1591 42.5966 95.0076 43.9602 92.2955C45.339 89.5682 47.2633 87.447 49.733 85.9318C52.2027 84.4015 55.1042 83.6364 58.4375 83.6364C60.589 83.6364 62.6193 83.9848 64.5284 84.6818C66.4527 85.3636 68.1496 86.4242 69.6193 87.8636C71.1042 89.303 72.2708 91.1364 73.1193 93.3636C73.9678 95.5758 74.392 98.2121 74.392 101.273V103.795H45.7784V98.25H66.5057C66.4905 96.6742 66.1496 95.2727 65.483 94.0455C64.8163 92.803 63.8845 91.8258 62.6875 91.1136C61.5057 90.4015 60.1269 90.0455 58.5511 90.0455C56.8693 90.0455 55.392 90.4545 54.1193 91.2727C52.8466 92.0758 51.8542 93.1364 51.142 94.4545C50.4451 95.7576 50.089 97.1894 50.0739 98.75V103.591C50.0739 105.621 50.4451 107.364 51.1875 108.818C51.9299 110.258 52.9678 111.364 54.3011 112.136C55.6345 112.894 57.1951 113.273 58.983 113.273C60.1799 113.273 61.2633 113.106 62.233 112.773C63.2027 112.424 64.0436 111.917 64.7557 111.25C65.4678 110.583 66.0057 109.758 66.3693 108.773L74.0511 109.636C73.5663 111.667 72.642 113.439 71.2784 114.955C69.9299 116.455 68.2027 117.621 66.0966 118.455C63.9905 119.273 61.5814 119.682 58.8693 119.682ZM97.2841 84.0909V90.4545H77.2159V84.0909H97.2841ZM82.1705 75.7273H90.3977V108.5C90.3977 109.606 90.5644 110.455 90.8977 111.045C91.2462 111.621 91.7008 112.015 92.2614 112.227C92.822 112.439 93.4432 112.545 94.125 112.545C94.6402 112.545 95.1098 112.508 95.5341 112.432C95.9735 112.356 96.3068 112.288 96.5341 112.227L97.9205 118.659C97.4811 118.811 96.8523 118.977 96.0341 119.159C95.2311 119.341 94.2462 119.447 93.0795 119.477C91.0189 119.538 89.1629 119.227 87.5114 118.545C85.8598 117.848 84.5492 116.773 83.5795 115.318C82.625 113.864 82.1553 112.045 82.1705 109.864V75.7273Z" fill="#263238"/>
<g clip-path="url(#clip0_6_90)">
<path d="M130.58 0.00146226C130.157 -0.0105471 129.736 0.0844794 129.343 0.281088C128.949 0.477697 128.59 0.771909 128.287 1.14638C127.984 1.52085 127.744 1.96812 127.579 2.46188C127.415 2.95564 127.33 3.48591 127.33 4.02173V36.6513C125.603 40.5232 124.711 44.6533 124.701 48.8231C124.715 53.6234 125.898 58.3631 128.167 62.7114C126.782 63.1327 125.376 63.695 124.067 64.2964C120.798 65.7987 118.128 67.4997 118.128 67.4997L118.829 68.613C118.829 68.613 121.439 66.956 124.614 65.4974C125.962 64.878 127.405 64.309 128.78 63.9072C129.274 64.7629 129.81 65.5986 130.385 66.4123C128.717 66.8386 126.976 67.5247 125.381 68.2574C122.112 69.7595 119.443 71.4583 119.443 71.4583L120.144 72.5716C120.144 72.5716 122.753 70.9171 125.928 69.4584C127.516 68.7289 129.242 68.0522 130.824 67.6595C130.978 67.6212 131.121 67.5989 131.271 67.5672C131.929 68.422 132.632 69.2483 133.376 70.0437C132.869 70.1136 132.354 70.2066 131.825 70.3377C130.119 70.761 128.33 71.4652 126.696 72.2163C123.427 73.7184 120.757 75.4173 120.757 75.4173L121.458 76.5303C121.458 76.5303 124.068 74.876 127.243 73.4174C128.83 72.688 130.557 72.0112 132.139 71.6185C133.025 71.3986 133.853 71.2876 134.588 71.2784C135.243 71.9024 135.925 72.5033 136.632 73.0798C134.846 76.6279 133.913 80.5129 133.902 84.4502C133.902 88.7408 134.997 92.9667 137.09 96.7618C139.184 100.557 142.214 103.807 145.918 106.23C144.776 107.255 143.945 108.442 143.494 109.692C143.043 110.941 142.985 112.217 143.325 113.412C143.607 114.396 144.153 115.303 144.931 116.082C145.709 116.862 146.704 117.497 147.86 117.954C149.015 118.41 150.309 118.678 151.666 118.742C153.023 118.806 154.417 118.665 155.769 118.327C157.994 117.767 160.006 116.698 161.505 115.281C163.005 116.699 165.018 117.767 167.243 118.327C169.973 119.01 172.818 118.876 175.152 117.955C177.486 117.033 179.117 115.401 179.688 113.415C180.03 112.216 179.971 110.935 179.516 109.681C179.062 108.427 178.224 107.236 177.074 106.209C179.899 104.373 182.342 102.051 184.281 99.3616C186.535 100.421 188.733 102.2 190.971 103.993C196.516 108.435 203.884 109.656 209.526 106.214C215.169 102.772 218.104 95.7679 218.032 87.1175C218.036 86.4114 217.899 85.7118 217.629 85.0599C217.358 84.408 216.96 83.8172 216.459 83.3224C215.957 82.8276 215.361 82.439 214.707 82.1794C214.053 81.9198 213.354 81.7946 212.651 81.8112C211.257 81.8436 209.934 82.4301 208.971 83.4421C208.008 84.454 207.484 85.8086 207.516 87.2077C207.567 93.4787 205.557 96.2845 204.066 97.1942C202.574 98.1038 200.619 98.2172 197.531 95.7432C195.481 94.1005 192.563 91.5169 188.555 89.7076C188.925 87.9773 189.111 86.2161 189.113 84.4502C189.103 80.5152 188.173 76.6319 186.391 73.0848C187.088 72.5061 187.759 71.9036 188.404 71.2784C189.144 71.2915 189.979 71.3971 190.874 71.6185C192.456 72.0112 194.183 72.688 195.77 73.4174C198.945 74.876 201.555 76.5303 201.555 76.5303L202.258 75.4173C202.258 75.4173 199.586 73.7184 196.317 72.2163C194.682 71.4652 192.896 70.761 191.19 70.3377C190.676 70.2097 190.173 70.1192 189.677 70.0489C190.421 69.2542 191.121 68.4286 191.778 67.5748C191.916 67.6051 192.047 67.625 192.188 67.6593C193.771 68.052 195.497 68.7288 197.085 69.4582C200.26 70.9169 202.869 72.5713 202.869 72.5713L203.573 71.4581C203.573 71.4581 200.901 69.7592 197.631 68.2571C196.027 67.5199 194.277 66.8299 192.599 66.4042C193.176 65.5907 193.712 64.7548 194.206 63.8992C195.589 64.3011 197.043 64.8738 198.399 65.4971C201.574 66.9557 204.184 68.6127 204.184 68.6127L204.887 67.4995C204.887 67.4995 202.215 65.7985 198.946 64.2962C197.636 63.6944 196.231 63.1324 194.846 62.7111C197.116 58.363 198.3 53.6233 198.314 48.8228C198.309 44.6409 197.417 40.4979 195.685 36.6147V4.02141C195.685 3.48533 195.6 2.95488 195.436 2.46091C195.271 1.96695 195.03 1.51945 194.727 1.14493C194.424 0.770419 194.065 0.476388 193.671 0.279961C193.277 0.0835335 192.856 -0.011274 192.432 0.00114011C191.9 0.016398 191.379 0.200768 190.918 0.537197L169.023 16.5387C166.551 16.0737 164.033 15.838 161.508 15.8351C158.992 15.8475 156.484 16.0912 154.024 16.562L132.095 0.537197C131.634 0.200768 131.113 0.016398 130.58 0.00114011V0.00146226Z" fill="#263238"/>
<path d="M131.273 7.91547V30.0227C133.354 27.3317 135.872 24.9335 138.741 22.907L131.273 7.91547ZM191.742 7.91547L184.26 22.9354C187.136 24.9673 189.658 27.3725 191.742 30.0716V7.91547Z" fill="#CE8882"/>
<path d="M161.507 68.6138C163.685 68.6138 165.451 67.4322 165.451 65.9747C165.451 64.5172 163.685 63.3357 161.507 63.3357C159.329 63.3357 157.564 64.5172 157.564 65.9747C157.564 67.4322 159.329 68.6138 161.507 68.6138Z" fill="#4D4D4D"/>
<path d="M142.583 44.8662C138.678 44.9401 135.028 46.546 132.822 49.4381C132.645 49.6705 132.563 49.9617 132.593 50.2525C133.074 54.9952 137.055 58.9429 142.306 60.2495C147.565 61.5485 153.072 59.9792 156.014 56.1234C156.191 55.8911 156.272 55.5998 156.242 55.309C155.762 50.5666 151.783 46.619 146.532 45.312C145.217 44.9872 143.888 44.8415 142.586 44.8662H142.583ZM180.428 44.8662C179.126 44.8411 177.796 44.9876 176.482 45.312C171.231 46.619 167.252 50.5666 166.771 55.309C166.741 55.5998 166.823 55.891 167 56.1234C169.942 59.9792 175.449 61.5485 180.708 60.2495C185.959 58.9429 189.94 54.9952 190.42 50.2525C190.45 49.9617 190.369 49.6704 190.192 49.4381C187.985 46.546 184.336 44.9401 180.43 44.8662H180.428Z" fill="#FFEEAA"/>
<path d="M147.703 47.5027C146.831 47.5027 145.995 47.9197 145.379 48.6621C144.763 49.4044 144.417 50.4114 144.417 51.4612C144.417 52.5111 144.763 53.518 145.379 54.2604C145.995 55.0028 146.831 55.4198 147.703 55.4198C148.574 55.4198 149.41 55.0028 150.026 54.2604C150.643 53.518 150.989 52.5111 150.989 51.4612C150.989 50.4114 150.643 49.4044 150.026 48.6621C149.41 47.9197 148.574 47.5027 147.703 47.5027ZM175.309 47.5027C174.437 47.5027 173.601 47.9197 172.985 48.6621C172.369 49.4044 172.023 50.4114 172.023 51.4612C172.023 52.5111 172.369 53.518 172.985 54.2604C173.601 55.0028 174.437 55.4198 175.309 55.4198C176.18 55.4198 177.016 55.0028 177.632 54.2604C178.248 53.518 178.595 52.5111 178.595 51.4612C178.595 50.4114 178.248 49.4044 177.632 48.6621C177.016 47.9197 176.18 47.5027 175.309 47.5027Z" fill="#263238"/>
</g>
<defs>
<clipPath id="clip0_6_90">
<rect width="99.9053" height="118.757" fill="white" transform="translate(118.128)"/>
</clipPath>
</defs>
</svg>
